<svg xmlns="http://www.w3.org/2000/svg" viewBox="0 0 1200 700" role="img" aria-labelledby="t d"><title id="t">Rotas do comércio atlântico</title><desc id="d">Mapa esquemático mostrando América, Europa e África conectadas pelo Atlântico e destacando a travessia forçada de africanos escravizados.</desc><defs><linearGradient id="sea" x1="0" y1="0" x2="1" y2="1"><stop stop-color="#dbeafe"/><stop offset="1" stop-color="#93c5fd"/></linearGradient><filter id="shadow"><feDropShadow dx="0" dy="10" stdDeviation="10" flood-opacity=".15"/></filter></defs><rect width="1200" height="700" rx="36" fill="url(#sea)"/><g filter="url(#shadow)"><path d="M78 126c118-76 244-42 310 34l-36 106-104 27-50 112-94-36-54-111z" fill="#86efac"/><path d="M770 92c120-35 244 6 340 72l-39 119-143 18-50 121-122-70 35-122z" fill="#fde68a"/><path d="M692 358c113-63 239-8 302 77l-51 178-179-24-116-117z" fill="#fdba74"/></g><g font-family="Arial,Helvetica,sans-serif" font-weight="700" fill="#1f2937"><text x="125" y="230" font-size="42">AMÉRICA</text><text x="850" y="190" font-size="42">EUROPA</text><text x="760" y="515" font-size="42">ÁFRICA</text></g><path d="M820 395 C670 330 510 295 310 274" fill="none" stroke="#9a3412" stroke-width="12" stroke-linecap="round"/><polygon points="326,252 282,271 321,298" fill="#9a3412"/><g transform="translate(520 285)"><path d="M0 48h112l-18 34H18z" fill="#7c2d12"/><rect x="53" y="0" width="8" height="52" rx="3" fill="#334155"/><path d="M60 6l52 36H60z" fill="#fff7ed"/><path d="M51 13L12 44h39z" fill="#fef3c7"/></g><rect x="205" y="590" width="790" height="72" rx="22" fill="#fffdf8" opacity=".94"/><text x="600" y="636" text-anchor="middle" font-family="Arial,Helvetica,sans-serif" font-size="31" font-weight="700" fill="#7c2d12">Travessia forçada de africanos escravizados</text></svg>